<svg id="Layer_1" data-name="Layer 1" xmlns="http://www.w3.org/2000/svg" xmlns:xlink="http://www.w3.org/1999/xlink" viewBox="0 0 202.25 74.25"><defs><style>.cls-1{fill:#005b7f;}.cls-2,.cls-8{fill:#0089bc;}.cls-2{stroke:#fff;}.cls-2,.cls-7{stroke-width:0.59px;}.cls-3,.cls-7{fill:#fff;}.cls-4{fill:#7171f4;}.cls-5{fill:#001fba;}.cls-6{fill:#ef073f;}.cls-7{stroke:#005b7f;}.cls-9{fill:#e20a62;}.cls-10{fill:#e2134e;}</style><symbol id="Automobile" data-name="Automobile" viewBox="0 0 212.94 58.91"><ellipse class="cls-1" cx="208.46" cy="30.15" rx="4.48" ry="1.74"/><ellipse class="cls-1" cx="207.15" cy="33.1" rx="4.48" ry="1.74"/><ellipse class="cls-1" cx="205.83" cy="35.89" rx="4.48" ry="1.73"/><ellipse class="cls-1" cx="37.17" cy="51.65" rx="6.92" ry="7.73" transform="translate(-26.31 47.25) rotate(-50.3)"/><ellipse class="cls-2" cx="37.17" cy="51.65" rx="3.68" ry="4.11" transform="translate(-26.31 47.26) rotate(-50.3)"/><ellipse class="cls-1" cx="161.72" cy="51.65" rx="6.92" ry="7.73" transform="translate(18.68 143.09) rotate(-50.3)"/><ellipse class="cls-2" cx="161.72" cy="51.65" rx="3.68" ry="4.11" transform="translate(18.69 143.1) rotate(-50.3)"/><path class="cls-3" d="M144.57,50.54H59.06s7.24-4.83-.34-7.24c0,0,9.31-.69,6.55,4.48Z"/><path class="cls-4" d="M12.9,54.75l1.17-7,.59-5.86L8.8,29.54S0,26.61,0,20.16c0,0,85.61-2.34,134.86,19.35,0,0,1.17-18.18,75.64-14.07l-5.28,17s6.45,5.86,1.76,8.21l-34-.58s.59-5.28-4.69-5.28-17,1.17-17,1.17a4.25,4.25,0,0,0-.59,5.86L50.42,51.23s2.35-10-8.21-10S24,47.13,25.8,53.58Z"/><path class="cls-5" d="M64.5,23.09,70.95,7.26l-8.46.5S122-19.13,180,27.19l-27.56,4.69s7.62-25.8-76.22-24.63Z"/><path class="cls-3" d="M7.81,22.24s68.78-2.86,126.31,18.67c0,0-58.3-18.67-120.78-17.53Z"/><path class="cls-3" d="M135.84,40.53s1-12.38,43.44-14.29C179.27,26.24,145,28.72,135.84,40.53Z"/><path class="cls-6" d="M52.77,49.18s.88-.59-.29-3.52l95,3.81Z"/><circle class="cls-7" cx="158.61" cy="21.04" r="3.81"/><polyline class="cls-8" points="71.86 24.05 78.67 20.16 76.92 16.07 84.51 24.83 79.64 21.72 73.22 24.44"/><path class="cls-9" d="M109.3,27.1,111,18.21c-1.17-1.36-4.67-.39-4.67-.39l-3.45,8.82-14.64-1h-.39c24.13,2.92,46.7,12.84,46.7,12.84,2.14-7.2,11.29-8.76,11.29-8.76Z"/><path class="cls-8" d="M182.38,25.61s6-12.26,13.23-15.37c0,0-9.15,7.2-11.68,15.37Z"/><circle class="cls-8" cx="195.23" cy="10.23" r="1.17"/><path class="cls-6" d="M10.73,29.57s13.45-2,56.27,2c0,0-51.93-1.88-51.2.29s20.37,2,20.37,2-19.94.5-18.35,2.82,8.34,1.78,8.34,1.78l-9.35,3.29S12,34.16,10.73,29.86"/><path class="cls-10" d="M206.47,27.77S177.59,23.5,148.06,35c0,0,36.42-1.48,55.13,5.74,0,0-9.68-7.22-35.44-7.87,0,0,17.72-3.12,36.26,1,0,0-2.13-3.45-28.22-3.77C175.79,30.06,194,26.62,206.47,27.77Z"/><path class="cls-1" d="M69,6.27s66.61-3.45,79.24,13.78C148.22,20.06,143.3.86,69,6.27Z"/></symbol></defs><title>Artboard 2</title><use id="Automobile-3" data-name="Automobile" width="212.94" height="58.91" transform="translate(5.28 12.28) scale(0.88 0.88)" xlink:href="#Automobile"/></svg>